<svg width="100" height="16" viewBox="0 0 100 16" fill="none" xmlns="http://www.w3.org/2000/svg">
<g clip-path="url(#clip0_62_33)">
<path fill-rule="evenodd" clip-rule="evenodd" d="M65.9024 0H98.4103C99.2847 0 99.9999 0.717995 99.9999 1.59525V14.5498C99.9999 15.4272 99.2847 16.145 98.4103 16.145H65.9024C65.0283 16.145 64.3131 15.4272 64.3131 14.5498V1.59525C64.3131 0.717995 65.0283 0 65.9024 0Z" fill="#FF7D24"/>
<path fill-rule="evenodd" clip-rule="evenodd" d="M67.0536 2.59014L71.0005 2.61338L74.8314 9.90391V2.59014H77.5246V13.5283L73.7051 13.5488L69.7468 6.01582V13.5283H67.0536V2.59014Z" fill="white"/>
<path fill-rule="evenodd" clip-rule="evenodd" d="M77.9413 13.5545L81.2506 13.5528L83.3982 10.1843L85.6038 13.5505L88.9702 13.5488L83.4213 6.02448L77.9413 13.5545Z" fill="white"/>
<path fill-rule="evenodd" clip-rule="evenodd" d="M78.2209 2.58977H81.4713L83.0849 5.36493L81.597 7.414L78.2209 2.58977Z" fill="white"/>
<path fill-rule="evenodd" clip-rule="evenodd" d="M88.6452 2.58977H85.3948L83.7812 5.36493L85.269 7.414L88.6452 2.58977Z" fill="white"/>
<path fill-rule="evenodd" clip-rule="evenodd" d="M88.8773 2.59008H97.2587V5.00528H94.6005V13.505H91.6287V5.00528H88.8773V2.59008Z" fill="white"/>
<path fill-rule="evenodd" clip-rule="evenodd" d="M0 2.29594V13.5539L2.40807 13.5508L2.4066 9.25766L3.67768 9.25686L6.34682 13.5554L8.98216 13.5421L5.75534 8.66108C6.82382 8.04155 7.76175 7.31896 7.76175 5.55648C7.77284 4.03074 6.93861 2.8977 5.4215 2.58322C3.27796 2.13891 1.45523 2.26433 0 2.29594ZM2.33803 7.27237H3.37403C4.39317 7.27237 5.32413 6.79405 5.32413 5.80013V5.67836C5.32413 4.51644 4.29139 4.28827 3.13029 4.28827H2.33803V7.27237Z" fill="#0079BF"/>
<path fill-rule="evenodd" clip-rule="evenodd" d="M54.154 13.5337H56.5307C56.6107 11.4812 56.4135 9.45509 56.6671 8.18451C56.7771 7.63357 56.9918 7.19915 57.346 6.96237C58.2411 6.36402 59.6251 6.71227 59.679 7.93558C59.7723 10.2031 59.7648 10.9476 59.7717 13.4998C59.7718 13.518 61.8379 13.5372 62.0773 13.5372C62.0714 11.5778 62.1386 9.79597 62.0629 7.65804C62.0028 5.95798 61.1477 4.97127 59.4482 4.79754C58.1781 4.66766 57.3124 5.02446 56.4893 6.01704L56.5145 1.60836H54.1378L54.154 13.5337Z" fill="#0079BF"/>
<path fill-rule="evenodd" clip-rule="evenodd" d="M33.1941 5.51687C33.4403 6.06822 33.6956 6.57788 33.9964 7.10144C34.7644 6.84051 35.4681 6.51752 36.389 6.51752C37.4922 6.51752 37.8356 7.30399 37.6779 8.16398C35.6247 8.23567 32.4986 8.13674 32.3569 10.8026C32.3569 12.5484 33.33 13.7215 35.0635 13.7215C36.9133 13.7095 37.3497 12.9889 37.977 12.4032L38.39 13.5358H40.0353L39.9996 7.87052C39.9996 5.59207 38.7301 4.7873 36.4531 4.7873C34.8024 4.77538 33.5858 5.38977 33.1941 5.51687ZM35.7145 11.9686C36.5528 12.1439 37.946 11.5748 37.7136 9.61024C36.8796 9.61024 35.8395 9.60064 35.2472 10.0652C34.4927 10.6571 34.6577 11.7476 35.7145 11.9686Z" fill="#0079BF"/>
<path fill-rule="evenodd" clip-rule="evenodd" d="M8.3104 9.08808C8.25081 14.0505 13.24 14.3536 15.836 13.0928L15.8061 11.2804C13.9122 12.0395 10.748 12.6947 10.748 9.75798H16.2936C16.5622 6.86219 15.4085 4.70342 12.2106 4.70342C9.88014 4.77497 8.3104 6.69539 8.3104 9.08808ZM10.8089 8.17459H14.0387C14.0387 7.27633 13.4757 6.37011 12.4791 6.41046C11.4859 6.4506 10.8089 7.11027 10.8089 8.17459Z" fill="#0079BF"/>
<path fill-rule="evenodd" clip-rule="evenodd" d="M23.9111 8.66255C23.9111 10.6227 24.1529 12.4185 26.3297 13.3098C28.1434 13.9213 30.2633 13.685 31.3459 13.0472V11.2202C29.6576 12.0298 26.3235 12.7142 26.2878 9.75871H31.7724C33.0188 3.5154 24.0899 3.02719 23.9111 8.66255ZM26.3487 8.17532H29.5786C29.5786 7.42157 29.2307 6.70366 28.5736 6.47987C28.1885 6.34869 27.6948 6.38662 27.3214 6.52969C26.6969 6.76893 26.3487 7.34648 26.3487 8.17532Z" fill="#0079BF"/>
<path fill-rule="evenodd" clip-rule="evenodd" d="M16.8418 7.32193C16.9252 9.45393 19.5018 9.72961 20.6586 10.5363C21.3923 11.0479 21.1106 11.7908 20.325 11.9365C19.3177 12.1235 17.8156 11.6676 16.9163 11.2198L16.8418 12.9854C16.982 13.8127 23.5306 14.6929 23.4234 10.9149C23.34 8.71081 21.5521 8.82701 19.8973 7.79624C18.9818 7.226 19.1422 6.84039 19.5778 6.66552C20.484 6.30151 21.683 6.87207 22.5652 7.07617L23.3015 5.37317C21.8228 4.8914 20.9144 4.64208 19.3298 4.8072C17.8757 4.95883 16.8418 5.82801 16.8418 7.32193Z" fill="#0079BF"/>
<path fill-rule="evenodd" clip-rule="evenodd" d="M53.2162 12.9729L53.2014 11.088C51.7685 11.7751 49.854 12.45 49.1796 10.633C48.7593 9.42783 48.9446 8.065 49.4972 7.3019C49.7103 7.00764 50.0178 6.8178 50.3695 6.73706C50.5603 6.6934 50.7576 6.68376 50.9527 6.6972C51.5107 6.73592 52.0914 6.96434 52.759 7.16273L53.4672 5.41421C52.9679 5.06793 52.1604 4.85057 51.3495 4.78396C50.2913 4.69715 49.087 4.86256 48.1794 5.5079C46.8364 6.46257 46.3365 8.27016 46.6479 10.5443C46.8706 11.9398 47.6684 13.0421 48.9926 13.4609C50.3166 13.8797 52.8206 13.7318 53.2162 12.9729Z" fill="#0079BF"/>
<path fill-rule="evenodd" clip-rule="evenodd" d="M43.1491 6.35812L42.7588 4.94994H40.9916L40.9745 13.4727L43.3066 13.4722C43.3031 12.4687 43.3236 11.8562 43.3066 10.7605C43.2647 8.05259 43.4278 6.81305 46.409 7.03544L46.5678 4.87746C44.4599 4.4065 43.4296 6.07126 43.1491 6.35812Z" fill="#0079BF"/>
</g>
<defs>
<clipPath id="clip0_62_33">
<rect width="100" height="16" fill="white"/>
</clipPath>
</defs>
</svg>
